<svg id="Group_23891" data-name="Group 23891" xmlns="http://www.w3.org/2000/svg" xmlns:xlink="http://www.w3.org/1999/xlink" width="213.072" height="142.838" viewBox="0 0 213.072 142.838">
  <defs>
    <linearGradient id="linear-gradient" x1="0.5" x2="0.5" y2="1" gradientUnits="objectBoundingBox">
      <stop offset="0" stop-color="#e94b51"/>
      <stop offset="1" stop-color="#b9081d"/>
    </linearGradient>
    <clipPath id="clip-path">
      <path id="Path_15352" data-name="Path 15352" d="M21.563,26.192v0c-2.695,1.735-3.956,7.025-3.956,7.025-1.262,2.9-2.764,1.569-3.582,6.582C12.64,48.289,15.389,50.9,18.664,59.638s1.736,8.549,1.455,18.281c-.454,15.554,3.048,26.155,6.14,36.518s4.689,11.782,7.185,11.961a2.639,2.639,0,0,0,1.137-.216c2.262-1.069,2.092-2.785,1.342-5.173S28.895,101.365,27.736,94s-1.153-12.711.659-25.721c2-14.359,13.212-17.007,18.868-24.95,1.73-2.428,1.78-6.884,1.78-6.884L25.759,57,23.3,36.727l3.65-7.705-1.672-1.909A2.369,2.369,0,0,0,23.261,25.6a3.152,3.152,0,0,0-1.7.59" transform="translate(-13.658 -25.602)" fill="none"/>
    </clipPath>
    <clipPath id="clip-path-2">
      <rect id="Rectangle_10433" data-name="Rectangle 10433" width="213.072" height="142.838" fill="none"/>
    </clipPath>
    <clipPath id="clip-path-3">
      <path id="Path_15357" data-name="Path 15357" d="M49.794,37.513l.006,0c-1.845,8.641-8.253,13.006-13.891,17.372s-8.776,11.142-7.5,21.329c.634,5.071,3.159,12.01,7.266,19.005a73.73,73.73,0,0,0,6.276,9.069,61.732,61.732,0,0,0,10.652,10.4c1.548,1,5.037,1.391,5.355-1.422.2-1.808-.273-2.863-3.853-5.934S38.226,92.5,36.5,83.039q-.192-1.062-.338-2.14c-1.2-8.9.088-18.524,4.884-23.238,2.1-2.067,4.5-4.076,6.665-6.276l.009-.01c.28-.284.557-.571.83-.868a24.952,24.952,0,0,0,3.864-5.218,16.192,16.192,0,0,0,1.819-5.549c1.085-8.1,1.728-14.191-6.619-16.01,0,0,3.6,7.128,2.182,13.782" transform="translate(-28.124 -23.731)" fill="none"/>
    </clipPath>
    <clipPath id="clip-path-4">
      <path id="Path_15358" data-name="Path 15358" d="M51.553,41.981l0,.005c-1.627,1.193-3.451,2.478-5.379,3.716C42.216,48.25,35.472,53.559,33.046,61.97,30.038,72.4,31.674,82.126,34.811,91.913c1.129,3.529,2.456,7.066,3.83,10.647,5.184,13.507,6.413,8.047,6.413,8.047s-1.866-4.124-3.967-9.626C38.2,93.415,34.861,83.24,35.3,77.589c-1.2-8.9.088-18.524,4.884-23.238,2.1-2.067,4.5-4.076,6.667-6.276l.008-.01a5.7,5.7,0,0,1,.83-.868,2.507,2.507,0,0,1,.4-.275c3.548-1.943,10.2-7.981,10.268-10.334,0,0-2.784,2.437-6.8,5.392" transform="translate(-31.455 -36.589)" fill="none"/>
    </clipPath>
    <clipPath id="clip-path-6">
      <path id="Path_15360" data-name="Path 15360" d="M26.107,72.914v0A41.121,41.121,0,0,0,27.1,83.389,103.23,103.23,0,0,0,42.41,117.6c1.466,2.1,2.791,2.8,3.889,2.8h.006a2.974,2.974,0,0,0,1.972-.817c1.227-1.091,1.636-3.275-1.3-6.413A75.96,75.96,0,0,1,35.043,93.857c-3-7.5-8.016-20.4-8.016-20.4-.158-.479-.425-1.216-.645-1.216-.108,0-.207.182-.275.669" transform="translate(-26.084 -72.245)" fill="none"/>
    </clipPath>
    <clipPath id="clip-path-7">
      <path id="Path_15361" data-name="Path 15361" d="M33.415,29.784l0,0h-.006ZM44.144,6.95A31.64,31.64,0,0,0,41.07,8.021c-.671.274-1.334.573-1.987.878-.466.218-.909.49-1.354.754A20,20,0,0,0,35.2,11.411a15.1,15.1,0,0,0-3.365,3.832A13.374,13.374,0,0,0,30.1,20.087a15.978,15.978,0,0,0-.2,2.847,10.17,10.17,0,0,0,.08,1.237c.079.549.126,1.106.245,1.648.109.5.238,1,.356,1.5.015.075.043.094.123.053a5.113,5.113,0,0,0,.441-.307,19.079,19.079,0,0,0,2.633-2.043A24.907,24.907,0,0,0,36.2,22.464a24.322,24.322,0,0,0,2.115-2.975,26.225,26.225,0,0,0,1.944-3.8c.057-.138.118-.275.177-.411l.047.014a11.289,11.289,0,0,1-.334,2.659A23.181,23.181,0,0,1,33.419,29.78a.228.228,0,0,0,.146-.024,21.262,21.262,0,0,0,4.621-1.877,16.11,16.11,0,0,0,2.648-1.871,14.344,14.344,0,0,0,1.881-2.016c.3-.386.549-.8.808-1.21a11.711,11.711,0,0,0,1-2,15.044,15.044,0,0,0,.636-2.094,15.577,15.577,0,0,0,.385-2.747,22.621,22.621,0,0,0-.107-3.668c-.094-.834-.234-1.66-.383-2.483-.166-.917-.431-1.813-.676-2.713-.028-.1-.063-.142-.132-.142a.368.368,0,0,0-.1.018" transform="translate(-29.901 -6.932)" fill="none"/>
    </clipPath>
    <clipPath id="clip-path-8">
      <path id="Path_15362" data-name="Path 15362" d="M31.991,18.628h0v0h0M21.668,8.388c-.643.039-1.281.112-1.916.21a20.294,20.294,0,0,0-2.564.6c-.111.033-.135.072-.1.18.194.563.362,1.135.573,1.691a18.355,18.355,0,0,0,1.294,2.746,12.837,12.837,0,0,0,1.7,2.306,9.464,9.464,0,0,0,4.459,2.805,10.158,10.158,0,0,0,2.727.382A10.786,10.786,0,0,0,30.2,19.1c.6-.135,1.191-.307,1.793-.473-.13-.038-.258-.075-.387-.108A17.036,17.036,0,0,1,25.862,16a15.7,15.7,0,0,1-1.946-1.6,12.282,12.282,0,0,1-1.345-1.511c-.028-.039-.091-.077-.05-.126s.08.013.119.039c.443.3.883.6,1.344.876A18.757,18.757,0,0,0,28.906,15.7a17.459,17.459,0,0,0,3.572.484,1.446,1.446,0,0,0,.195-.01c.116-.013.158-.059.108-.185-.088-.219-.165-.441-.239-.663a11.509,11.509,0,0,0-1.217-2.451,5.288,5.288,0,0,0-.406-.591,14.445,14.445,0,0,0-1.174-1.291,9.37,9.37,0,0,0-1.154-.937,9.882,9.882,0,0,0-3.928-1.513,13.407,13.407,0,0,0-2.2-.181q-.4,0-.8.024" transform="translate(-17.074 -8.364)" fill="url(#linear-gradient)"/>
    </clipPath>
    <clipPath id="clip-path-9">
      <path id="Path_15363" data-name="Path 15363" d="M34.249,0a.468.468,0,0,0-.187.1c-.033.021-.065.041-.1.062a12.471,12.471,0,0,0-1.425.977,13.83,13.83,0,0,0-2.506,2.425,8.55,8.55,0,0,0-1.845,4.2,8.105,8.105,0,0,0,.27,3.493,11.192,11.192,0,0,0,1.006,2.371c.13.221.25.446.426.7a13.581,13.581,0,0,1,2.679-9.174h.009a.264.264,0,0,1,0,.2c-.211.66-.417,1.322-.567,2a15.8,15.8,0,0,0-.37,4.72,11.39,11.39,0,0,0,.392,2.171c.04.151.1.167.218.082.328-.233.654-.466.966-.723a10.327,10.327,0,0,0,1.8-1.847,8.147,8.147,0,0,0,1.563-5.276A10.564,10.564,0,0,0,36.067,3.8a15.276,15.276,0,0,0-.851-2.156Q34.844.88,34.4.156C34.338.052,34.3,0,34.257,0Z" transform="translate(-28.108)" fill="none"/>
    </clipPath>
  </defs>
  <g id="Group_23872" data-name="Group 23872" transform="translate(17.173 32.191)">
    <g id="Group_23871" data-name="Group 23871" clip-path="url(#clip-path)">
      <rect id="Rectangle_10432" data-name="Rectangle 10432" width="105.397" height="52.292" transform="translate(-17.173 98.161) rotate(-80.655)" fill="#464443"/>
    </g>
  </g>
  <g id="Group_23874" data-name="Group 23874" transform="translate(0 0)">
    <g id="Group_23873" data-name="Group 23873" clip-path="url(#clip-path-2)">
      <path id="Path_15353" data-name="Path 15353" d="M52.511,29.466s-1.455-6.458,1.091-7.322,6.459,1.411,7.5,7.185,3.047,13.621-8.682,24.945-13.985,15.69-11.87,22.79,14.8,22.716,27.083,29.4,16.577,7.846,16.3,11.6a3.609,3.609,0,0,1-5.048,3.274c-1.364-.542-19.643-7.366-32.4-22.307a45.022,45.022,0,0,0,5.73,9.995c2.286,2.762-14.393-12.063-14.393-12.063L31.455,75.853l5.183-17.735L50.464,44.111Z" transform="translate(8.096 5.654)" fill="#5e86c4"/>
      <path id="Path_15354" data-name="Path 15354" d="M26.571,22.582c2.029-.034,4.706,2.336,4.826,5.287s-.835,7.214-2.916,9.7-5.252,4.843-4.467,8.05S26.4,48.079,29.606,46s9.08-7.227,10.71-10.233c2.593-4.776,2.149-9.311,5.252-10.812a13.933,13.933,0,0,1,2.354-.513c-.512.752-.543,1.535.136,2.9a12.689,12.689,0,0,1,1.093,8.016c-.683,3.854-2.388,6.31-6.243,8.833s-10.756,6.765-14.12,13.586a63.086,63.086,0,0,0-4.73,15.552s-.5.456-.455-1.046.274-11.243-2.213-18.61-4.811-11.7-2.9-14.257,5.317-5.319,5.594-8.561-.251-6.316.886-7.572a2.3,2.3,0,0,1,1.6-.7" transform="translate(4.578 5.812)" fill="#5e86c4"/>
      <path id="Path_15355" data-name="Path 15355" d="M39.517,37.092a8.5,8.5,0,0,0,.988-4.332c0-2.8.138-5.389.92-4.774s.957,4.332.683,5.457-.988,4.094-2.215,4.537-.47-.726-.47-.726Z" transform="translate(10.087 7.179)" fill="#464443"/>
      <path id="Path_15356" data-name="Path 15356" d="M26.1,27.276c0,1.432-.181,6.39-2.774,8.682s-2.433,3.434-.888,2.659a12.906,12.906,0,0,0,4.684-6.185,21.442,21.442,0,0,0,.434-6.527c-.284-.472-1.374-.651-1.421.347s-.034,1.018-.034,1.018" transform="translate(5.488 6.57)" fill="#464443"/>
    </g>
  </g>
  <g id="Group_23876" data-name="Group 23876" transform="translate(35.362 29.839)">
    <g id="Group_23875" data-name="Group 23875" clip-path="url(#clip-path-3)">
      <rect id="Rectangle_10434" data-name="Rectangle 10434" width="31.027" height="92.348" transform="translate(-0.994 0.004)" fill="#464443"/>
    </g>
  </g>
  <g id="Group_23878" data-name="Group 23878" transform="translate(39.551 46.006)">
    <g id="Group_23877" data-name="Group 23877" clip-path="url(#clip-path-4)">
      <rect id="Rectangle_10435" data-name="Rectangle 10435" width="81.604" height="34.877" transform="translate(-8.033 78.922) rotate(-85.184)" fill="#464443"/>
    </g>
  </g>
  <g id="Group_23880" data-name="Group 23880" transform="translate(0 0)">
    <g id="Group_23879" data-name="Group 23879" clip-path="url(#clip-path-2)">
      <path id="Path_15359" data-name="Path 15359" d="M51.979,25.254c-.326-.218-.868-.363-.636.365a6.683,6.683,0,0,1,.83,3.991c-.233,1.8.693,2.513,1.364,1.682.689-.853.307-2.546.1-3.195a6.22,6.22,0,0,0-1.661-2.842" transform="translate(13.2 6.454)" fill="#464443"/>
    </g>
  </g>
  <g id="Group_23882" data-name="Group 23882" transform="translate(32.797 90.839)">
    <g id="Group_23881" data-name="Group 23881" clip-path="url(#clip-path-6)">
      <rect id="Rectangle_10437" data-name="Rectangle 10437" width="51.409" height="31.512" transform="translate(-7.896 46.882) rotate(-80.655)" fill="#464443"/>
    </g>
  </g>
  <g id="Group_23884" data-name="Group 23884" transform="translate(37.597 8.716)">
    <g id="Group_23883" data-name="Group 23883" clip-path="url(#clip-path-7)">
      <rect id="Rectangle_10438" data-name="Rectangle 10438" width="15.72" height="22.857" transform="translate(-0.016 0)" fill="url(#linear-gradient)"/>
    </g>
  </g>
  <g id="Group_23886" data-name="Group 23886" transform="translate(21.469 10.517)">
    <g id="Group_23885" data-name="Group 23885" clip-path="url(#clip-path-8)">
      <rect id="Rectangle_10439" data-name="Rectangle 10439" width="15.778" height="10.963" transform="translate(-0.021 0)" fill="url(#linear-gradient)"/>
    </g>
  </g>
  <g id="Group_23888" data-name="Group 23888" transform="translate(35.342)">
    <g id="Group_23887" data-name="Group 23887" clip-path="url(#clip-path-9)">
      <rect id="Rectangle_10440" data-name="Rectangle 10440" width="8.661" height="14.411" transform="translate(-0.085 0)" fill="url(#linear-gradient)"/>
    </g>
  </g>
  <g id="Group_23890" data-name="Group 23890" transform="translate(0 0)">
    <g id="Group_23889" data-name="Group 23889" clip-path="url(#clip-path-2)">
      <path id="Path_15364" data-name="Path 15364" d="M49.345,74.364c14.383-.616,28.766-.908,43.149-1.085,7.191-.121,14.383-.108,21.574-.174l21.574.02,12.774.189c7.191.116,14.383.187,21.575.366,14.383.3,16.192.714,30.576,1.441-14.384.728-16.192,1.139-30.576,1.442-7.192.179-14.384.25-21.575.366l-12.774.189-21.574.019c-7.192-.062-14.383-.053-21.574-.174C78.11,76.79,63.728,76.5,49.345,75.878a.759.759,0,0,1,0-1.519" transform="translate(12.505 18.815)" fill="#abcdd5"/>
      <path id="Path_15365" data-name="Path 15365" d="M86.757,17.143V31.618a8.756,8.756,0,0,1,1.477-1.42,10.1,10.1,0,0,1,1.822-1.1,10.672,10.672,0,0,1,2.081-.72,10.195,10.195,0,0,1,6.338.578,9.114,9.114,0,0,1,3.181,2.378,11,11,0,0,1,2.058,3.713,15.035,15.035,0,0,1,.733,4.825A15.792,15.792,0,0,1,103.633,45a11.982,11.982,0,0,1-2.4,4.162,11.131,11.131,0,0,1-3.913,2.791,13.286,13.286,0,0,1-5.358,1.017,16.375,16.375,0,0,1-2.732-.284,15.5,15.5,0,0,1-2.683-.757A12.532,12.532,0,0,1,84.1,50.68a8.61,8.61,0,0,1-2-1.821V20.526l-2.6-1.608v-.308l6.977-1.726Zm5.534,35.074a5.562,5.562,0,0,0,2.969-.8,6.745,6.745,0,0,0,2.223-2.293,12.085,12.085,0,0,0,1.4-3.572,20.459,20.459,0,0,0,.485-4.635,18.035,18.035,0,0,0-.521-4.542,10.452,10.452,0,0,0-1.479-3.358,6.411,6.411,0,0,0-2.341-2.081,6.668,6.668,0,0,0-3.086-.709,6.322,6.322,0,0,0-2.85.65,7.543,7.543,0,0,0-2.33,1.809V48.126a6.227,6.227,0,0,0,2.188,3.087,5.68,5.68,0,0,0,3.346,1" transform="translate(20.46 4.345)" fill="#233246"/>
      <path id="Path_15366" data-name="Path 15366" d="M124.76,45.495a11.579,11.579,0,0,1-4.042,3.761,11.922,11.922,0,0,1-5.961,1.42,11.064,11.064,0,0,1-4.435-.864,9.865,9.865,0,0,1-3.429-2.436,11.011,11.011,0,0,1-2.212-3.761,14.262,14.262,0,0,1-.78-4.813,15.7,15.7,0,0,1,.85-5.3,12.458,12.458,0,0,1,2.365-4.1,10.47,10.47,0,0,1,3.6-2.649,10.963,10.963,0,0,1,4.54-.934,10.19,10.19,0,0,1,4.211.829,8.96,8.96,0,0,1,3.109,2.271A9.9,9.9,0,0,1,124.5,32.31a12.87,12.87,0,0,1,.664,4.174H108.842a3.1,3.1,0,0,0-.047.532v.58a16.909,16.909,0,0,0,.557,4.339,9.466,9.466,0,0,0,1.56,3.277,6.92,6.92,0,0,0,2.53,2.07,7.921,7.921,0,0,0,3.465.72,11.242,11.242,0,0,0,2.188-.212,12.879,12.879,0,0,0,2.046-.58,10.287,10.287,0,0,0,1.809-.888,8.2,8.2,0,0,0,1.479-1.158Zm-9.72-18.849a4.6,4.6,0,0,0-2.436.661,6.033,6.033,0,0,0-1.892,1.881,10.235,10.235,0,0,0-1.277,2.921,17.011,17.011,0,0,0-.567,3.783l11.494-.521q0-4.351-1.371-6.538a4.4,4.4,0,0,0-3.951-2.188" transform="translate(26.742 6.645)" fill="#233246"/>
      <path id="Path_15367" data-name="Path 15367" d="M131.182,17.143V31.618a8.756,8.756,0,0,1,1.477-1.42,10.1,10.1,0,0,1,1.822-1.1,10.671,10.671,0,0,1,2.081-.72,10.195,10.195,0,0,1,6.338.578,9.114,9.114,0,0,1,3.181,2.378,11,11,0,0,1,2.058,3.713,15.035,15.035,0,0,1,.733,4.825A15.792,15.792,0,0,1,148.058,45a11.983,11.983,0,0,1-2.4,4.162,11.131,11.131,0,0,1-3.913,2.791,13.286,13.286,0,0,1-5.358,1.017,16.376,16.376,0,0,1-2.732-.284,15.5,15.5,0,0,1-2.683-.757,12.532,12.532,0,0,1-2.449-1.254,8.61,8.61,0,0,1-2-1.821V20.526l-2.6-1.608v-.308l6.977-1.726Zm5.534,35.074a5.562,5.562,0,0,0,2.969-.8,6.745,6.745,0,0,0,2.223-2.293,12.085,12.085,0,0,0,1.4-3.572,20.458,20.458,0,0,0,.485-4.635,18.036,18.036,0,0,0-.521-4.542,10.452,10.452,0,0,0-1.479-3.358,6.411,6.411,0,0,0-2.341-2.081,6.668,6.668,0,0,0-3.086-.709,6.323,6.323,0,0,0-2.85.65,7.544,7.544,0,0,0-2.33,1.809V48.126a6.227,6.227,0,0,0,2.188,3.087,5.68,5.68,0,0,0,3.346,1" transform="translate(31.894 4.345)" fill="#233246"/>
      <path id="Path_15368" data-name="Path 15368" d="M160.6,50.675a12.7,12.7,0,0,1-4.871-.923,11.646,11.646,0,0,1-3.892-2.578,12.072,12.072,0,0,1-2.589-3.938,13.517,13.517,0,0,1,0-9.933,12.2,12.2,0,0,1,2.589-3.949,11.707,11.707,0,0,1,3.892-2.6,13.235,13.235,0,0,1,9.769,0,11.852,11.852,0,0,1,3.9,2.6,12,12,0,0,1,2.59,3.949,13.669,13.669,0,0,1,0,9.933,11.667,11.667,0,0,1-6.492,6.516,12.788,12.788,0,0,1-4.9.923m0-.757A5.626,5.626,0,0,0,163.6,49.1a7,7,0,0,0,2.282-2.341,12.352,12.352,0,0,0,1.455-3.678,21.069,21.069,0,0,0,.508-4.825,20.521,20.521,0,0,0-.519-4.8,12.563,12.563,0,0,0-1.467-3.678,7.1,7.1,0,0,0-2.282-2.353,5.78,5.78,0,0,0-5.96,0,7,7,0,0,0-2.271,2.353,12.519,12.519,0,0,0-1.442,3.678,20.89,20.89,0,0,0-.508,4.8,21,21,0,0,0,.508,4.825,12.519,12.519,0,0,0,1.442,3.678,6.89,6.89,0,0,0,2.271,2.341,5.619,5.619,0,0,0,2.991.816" transform="translate(38.171 6.645)" fill="#233246"/>
      <path id="Path_15369" data-name="Path 15369" d="M57.918,67.122v-14.2H65.4v1.542h-5.8V58.54h5.8v1.57h-5.8v7.011Z" transform="translate(14.907 13.622)" fill="#233246"/>
      <path id="Path_15370" data-name="Path 15370" d="M57.918,67.122v-14.2H65.4v1.542h-5.8V58.54h5.8v1.57h-5.8v7.011Z" transform="translate(14.907 13.622)" fill="none" stroke="#233246" stroke-width="0.15"/>
      <path id="Path_15371" data-name="Path 15371" d="M81.371,60.118a7.364,7.364,0,0,1-.563,2.871,7.158,7.158,0,0,1-1.64,2.394A7.586,7.586,0,0,1,76.689,67a7.7,7.7,0,0,1-8.272-1.614A7.221,7.221,0,0,1,66.2,60.118a7.345,7.345,0,0,1,.567-2.874,7.251,7.251,0,0,1,1.653-2.41,7.54,7.54,0,0,1,2.466-1.6,7.789,7.789,0,0,1,5.817,0,7.53,7.53,0,0,1,2.469,1.6,7.145,7.145,0,0,1,1.64,2.4,7.419,7.419,0,0,1,.563,2.884m-7.588,5.857A5.682,5.682,0,0,0,76,65.534a5.865,5.865,0,0,0,1.9-1.285,5.735,5.735,0,0,0,1.709-4.13,5.913,5.913,0,0,0-.441-2.268,5.789,5.789,0,0,0-5.382-3.609,5.807,5.807,0,0,0-2.242.438,5.55,5.55,0,0,0-1.872,1.27,5.837,5.837,0,0,0-1.272,1.91,5.917,5.917,0,0,0-.436,2.259,5.793,5.793,0,0,0,.431,2.231,6.044,6.044,0,0,0,3.174,3.19,5.7,5.7,0,0,0,2.218.436" transform="translate(17.037 13.556)" fill="#233246"/>
      <path id="Path_15372" data-name="Path 15372" d="M81.371,60.118a7.364,7.364,0,0,1-.563,2.871,7.158,7.158,0,0,1-1.64,2.394A7.586,7.586,0,0,1,76.689,67a7.7,7.7,0,0,1-8.272-1.614A7.221,7.221,0,0,1,66.2,60.118a7.345,7.345,0,0,1,.567-2.874,7.251,7.251,0,0,1,1.653-2.41,7.54,7.54,0,0,1,2.466-1.6,7.789,7.789,0,0,1,5.817,0,7.53,7.53,0,0,1,2.469,1.6,7.145,7.145,0,0,1,1.64,2.4A7.419,7.419,0,0,1,81.371,60.118Zm-7.588,5.857A5.682,5.682,0,0,0,76,65.534a5.865,5.865,0,0,0,1.9-1.285,5.735,5.735,0,0,0,1.709-4.13,5.913,5.913,0,0,0-.441-2.268,5.789,5.789,0,0,0-5.382-3.609,5.807,5.807,0,0,0-2.242.438,5.55,5.55,0,0,0-1.872,1.27,5.837,5.837,0,0,0-1.272,1.91,5.917,5.917,0,0,0-.436,2.259,5.793,5.793,0,0,0,.431,2.231,6.044,6.044,0,0,0,3.174,3.19A5.7,5.7,0,0,0,73.783,65.975Z" transform="translate(17.037 13.556)" fill="none" stroke="#233246" stroke-width="0.15"/>
      <path id="Path_15373" data-name="Path 15373" d="M81.2,52.926h1.706v8.833a4.6,4.6,0,0,0,.917,3.162,4.607,4.607,0,0,0,5.75,0,4.6,4.6,0,0,0,.917-3.162V52.926H92.2v8.833a6.009,6.009,0,0,1-1.373,4.31,6.677,6.677,0,0,1-8.261,0,6.008,6.008,0,0,1-1.372-4.31Z" transform="translate(20.899 13.622)" fill="#233246"/>
      <path id="Path_15374" data-name="Path 15374" d="M81.2,52.926h1.706v8.833a4.6,4.6,0,0,0,.917,3.162,4.607,4.607,0,0,0,5.75,0,4.6,4.6,0,0,0,.917-3.162V52.926H92.2v8.833a6.009,6.009,0,0,1-1.373,4.31,6.677,6.677,0,0,1-8.261,0,6.008,6.008,0,0,1-1.372-4.31Z" transform="translate(20.899 13.622)" fill="none" stroke="#233246" stroke-width="0.15"/>
      <path id="Path_15375" data-name="Path 15375" d="M93.41,67.237V52.479l10.385,11.345V53.041H105.4V67.789L95.018,56.571V67.237Z" transform="translate(24.041 13.507)" fill="#233246"/>
      <path id="Path_15376" data-name="Path 15376" d="M93.41,67.237V52.479l10.385,11.345V53.041H105.4V67.789L95.018,56.571V67.237Z" transform="translate(24.041 13.507)" fill="none" stroke="#233246" stroke-width="0.15"/>
      <path id="Path_15377" data-name="Path 15377" d="M106.439,67.123v-14.2h2.725a20.242,20.242,0,0,1,4.26.306,5.751,5.751,0,0,1,2.168,1.022,5.938,5.938,0,0,1,1.852,2.405,9.337,9.337,0,0,1,0,6.733,5.87,5.87,0,0,1-1.856,2.4,5.753,5.753,0,0,1-2.119,1.022,16.119,16.119,0,0,1-3.7.307h-3.335Zm1.7-1.591h1.076a19.274,19.274,0,0,0,3.626-.228,3.965,3.965,0,0,0,1.679-.781,4.591,4.591,0,0,0,1.328-1.876,7.834,7.834,0,0,0,.005-5.256,4.6,4.6,0,0,0-1.333-1.866,3.98,3.98,0,0,0-1.7-.8,18.472,18.472,0,0,0-3.6-.238h-1.076Z" transform="translate(27.395 13.622)" fill="#233246"/>
      <path id="Path_15378" data-name="Path 15378" d="M106.439,67.123v-14.2h2.725a20.242,20.242,0,0,1,4.26.306,5.751,5.751,0,0,1,2.168,1.022,5.938,5.938,0,0,1,1.852,2.405,9.337,9.337,0,0,1,0,6.733,5.87,5.87,0,0,1-1.856,2.4,5.753,5.753,0,0,1-2.119,1.022,16.119,16.119,0,0,1-3.7.307h-3.335Zm1.7-1.591h1.076a19.274,19.274,0,0,0,3.626-.228,3.965,3.965,0,0,0,1.679-.781,4.591,4.591,0,0,0,1.328-1.876,7.834,7.834,0,0,0,.005-5.256,4.6,4.6,0,0,0-1.333-1.866,3.98,3.98,0,0,0-1.7-.8,18.472,18.472,0,0,0-3.6-.238h-1.076Z" transform="translate(27.395 13.622)" fill="none" stroke="#233246" stroke-width="0.15"/>
      <path id="Path_15379" data-name="Path 15379" d="M123.29,52.479l6.458,14.758h-1.832l-1.843-4.353h-5.546l-1.842,4.353h-1.833Zm0,3.733-2.26,5.226h4.519Z" transform="translate(30.075 13.507)" fill="#233246"/>
      <path id="Path_15380" data-name="Path 15380" d="M123.29,52.479l6.458,14.758h-1.832l-1.843-4.353h-5.546l-1.842,4.353h-1.833Zm0,3.733-2.26,5.226h4.519Z" transform="translate(30.075 13.507)" fill="none" stroke="#233246" stroke-width="0.15"/>
      <path id="Path_15381" data-name="Path 15381" d="M131.626,67.122V54.536h-4.015V52.926h9.716v1.609h-3.995V67.122Z" transform="translate(32.844 13.622)" fill="#233246"/>
      <path id="Path_15382" data-name="Path 15382" d="M131.626,67.122V54.536h-4.015V52.926h9.716v1.609h-3.995V67.122Z" transform="translate(32.844 13.622)" fill="none" stroke="#233246" stroke-width="0.15"/>
      <rect id="Rectangle_10441" data-name="Rectangle 10441" width="1.687" height="14.196" transform="translate(173.065 66.548)" fill="#233246"/>
      <rect id="Rectangle_10442" data-name="Rectangle 10442" width="1.687" height="14.196" transform="translate(173.065 66.548)" fill="none" stroke="#233246" stroke-width="0.15"/>
      <path id="Path_15383" data-name="Path 15383" d="M157.159,60.118a7.386,7.386,0,0,1-.562,2.871,7.161,7.161,0,0,1-1.641,2.394A7.567,7.567,0,0,1,152.478,67a7.7,7.7,0,0,1-8.272-1.614,7.341,7.341,0,0,1,0-10.549,7.547,7.547,0,0,1,2.464-1.6,7.789,7.789,0,0,1,5.817,0,7.5,7.5,0,0,1,2.469,1.6,7.149,7.149,0,0,1,1.641,2.4,7.441,7.441,0,0,1,.562,2.884m-7.587,5.857a5.687,5.687,0,0,0,2.218-.441,5.892,5.892,0,0,0,1.9-1.285,5.745,5.745,0,0,0,1.271-1.89,5.805,5.805,0,0,0,.438-2.241,5.891,5.891,0,0,0-.443-2.268,5.786,5.786,0,0,0-5.38-3.609,5.8,5.8,0,0,0-2.242.438,5.538,5.538,0,0,0-1.872,1.27,5.817,5.817,0,0,0-1.272,1.91,5.894,5.894,0,0,0-.436,2.259,5.726,5.726,0,0,0,1.709,4.13,5.876,5.876,0,0,0,1.9,1.29,5.7,5.7,0,0,0,2.218.436" transform="translate(36.543 13.556)" fill="#233246"/>
      <path id="Path_15384" data-name="Path 15384" d="M157.159,60.118a7.386,7.386,0,0,1-.562,2.871,7.161,7.161,0,0,1-1.641,2.394A7.567,7.567,0,0,1,152.478,67a7.7,7.7,0,0,1-8.272-1.614,7.341,7.341,0,0,1,0-10.549,7.547,7.547,0,0,1,2.464-1.6,7.789,7.789,0,0,1,5.817,0,7.5,7.5,0,0,1,2.469,1.6,7.149,7.149,0,0,1,1.641,2.4A7.441,7.441,0,0,1,157.159,60.118Zm-7.587,5.857a5.687,5.687,0,0,0,2.218-.441,5.892,5.892,0,0,0,1.9-1.285,5.745,5.745,0,0,0,1.271-1.89,5.805,5.805,0,0,0,.438-2.241,5.891,5.891,0,0,0-.443-2.268,5.786,5.786,0,0,0-5.38-3.609,5.8,5.8,0,0,0-2.242.438,5.538,5.538,0,0,0-1.872,1.27,5.817,5.817,0,0,0-1.272,1.91,5.894,5.894,0,0,0-.436,2.259,5.726,5.726,0,0,0,1.709,4.13,5.876,5.876,0,0,0,1.9,1.29A5.7,5.7,0,0,0,149.572,65.975Z" transform="translate(36.543 13.556)" fill="none" stroke="#233246" stroke-width="0.15"/>
      <path id="Path_15385" data-name="Path 15385" d="M157.034,67.237V52.479l10.385,11.345V53.041h1.609V67.789L158.642,56.571V67.237Z" transform="translate(40.417 13.507)" fill="#233246"/>
      <path id="Path_15386" data-name="Path 15386" d="M157.034,67.237V52.479l10.385,11.345V53.041h1.609V67.789L158.642,56.571V67.237Z" transform="translate(40.417 13.507)" fill="none" stroke="#233246" stroke-width="0.15"/>
    </g>
  </g>
</svg>
